<svg width="82" height="100" viewBox="0 0 82 100" xmlns="http://www.w3.org/2000/svg"><g fill-rule="nonzero" fill="none"><path d="M78.097.66H.013L.02 27.596V44.57c0 23.061 26.256 46.59 38.97 54.37l1.578.962 1.593-.962c12.715-7.778 38.971-31.305 38.971-54.37L81.118.66h-3.02" fill="#FFF"/><path d="M78.097 3.678H3.034l.006 23.916v16.974c0 21.692 25.787 44.61 37.528 51.795v.011l.009-.003.006.003v-.011C52.327 89.178 78.11 66.26 78.11 44.568l-.014-40.89" fill="#011F5B"/><path d="M49.958 45.494c-.003-.003-.003-.01-.007-.016.002.008.004.013.007.016" fill="#154281"/><path d="M39.564 9.041v2.063c1.06 0 1.855.323 1.855 1.344v6.91c0 1.226-.613 1.982-2 1.982v1.955h7.159s.023-1.12.023-2.015c-1.47 0-2.163-.594-2.163-1.922 0-.61.02-2.833.02-2.833l5.019 6.77h3.63s-.02-8.58-.02-10.437c0-1.674.63-1.754 1.978-1.754V9.04h-7.26v2.08c1.712 0 2.14.736 2.14 1.94v3.832l-5.65-7.852h-4.731zm17.399 0v2.063c1.061 0 1.855.323 1.855 1.344v6.91c0 1.226-.614 1.982-2 1.982v1.955h7.16S64 22.175 64 21.28c-1.47 0-2.165-.594-2.165-1.922 0-.61.021-2.833.021-2.833l5.018 6.77h3.631s-.019-8.58-.019-10.437c0-1.674.632-1.754 1.978-1.754V9.04h-7.262v2.08c1.715 0 2.142.736 2.142 1.94v3.832l-5.65-7.852H56.963zm-32.904.021s.021 1.001.021 2.082c.43 0 1.938.202 1.938 1.264l.021 7.239c0 1.264-1.223 1.673-2.161 1.673v1.998l12.644-.023v-3.873H33.71c-.022 1.304-.799 1.731-1.695 1.731H30.1v-4.34h.957c.937 0 1.04.977 1.04.977h1.734v-3.894h-1.734s0 .998-1 .998H30.1v-3.833h1.874c1.735 0 1.653 1.487 1.653 1.487h2.895V9.062H24.06zm-14.52.002v2.057c.774 0 1.897.287 1.878 1.306v7.22c-.022 1.04-.759 1.672-2.044 1.672-.02 0-.039 1.976-.039 1.976h8.199v-1.976c-1.55 0-2.038-.532-2.038-1.448l.02-2.221h1.529c3.691 0 5.69-1.9 5.732-4.568.04-2.836-2.16-4.018-5.282-4.018H9.54zm5.956 2.547h1.304c.715 0 1.55.428 1.53 1.756-.02 1.347-.96 1.671-1.917 1.671h-.896l-.021-3.427zM6.789 31.125V44.57c0 17.946 21.001 38.763 33.785 47.336 12.78-8.573 33.787-29.39 33.787-47.336V31.125c-6.096.03-61.479.03-67.572 0z" fill="#FFF"/><path d="M42.929 44.019h3.486c.531 0 1.29.163 1.997.627l5.243-7.465c-1.969-.868-4.429-1.083-7.124-1.083H28.266s.045 5.468 0 5.423c2.01 0 5.082.91 5.082 3.897v20.439l9.581-13.491v-8.347" fill="#900"/><path d="M49.958 45.483l6.251-7.608c2.586 2.186 3.394 5.555 3.394 8.777 0 7.803-4.62 11.705-13.859 11.705h-2.838v7.973c0 2.705 1.496 4.596 5.382 4.596v5.215H28.267s-.022-5.195 0-5.215c3.255 0 5.079-2.211 5.082-5.218l10.48-12.761h1.382c2.612 0 5.141-.982 5.141-5.067 0-.695-.118-1.682-.394-2.397" fill="#011F5B"/></g></svg>